<mxfile host="app.diagrams.net" agent="Mozilla/5.0 (Windows NT 10.0; Win64; x64) AppleWebKit/537.36 (KHTML, like Gecko) Chrome/130.0.0.0 Safari/537.36" version="24.8.3">
  <diagram name="Page-1" id="2a216829-ef6e-dabb-86c1-c78162f3ba2b">
    <mxGraphModel dx="1318" dy="551" grid="1" gridSize="10" guides="1" tooltips="1" connect="1" arrows="1" fold="1" page="1" pageScale="1" pageWidth="850" pageHeight="1100" background="none" math="0" shadow="0">
      <root>
        <mxCell id="0" />
        <mxCell id="1" parent="0" />
        <mxCell id="94Gj55trSPbPdeBnX5Sf-7" value="&lt;font style=&quot;font-size: 14px;&quot;&gt;Customer&lt;/font&gt;" style="swimlane;startSize=20;horizontal=0;html=1;whiteSpace=wrap;" vertex="1" parent="1">
          <mxGeometry x="220" y="130" width="1360" height="230" as="geometry" />
        </mxCell>
        <mxCell id="7a84cebc1def654-1" value="" style="shape=mxgraph.bpmn.shape;html=1;verticalLabelPosition=bottom;labelBackgroundColor=#ffffff;verticalAlign=top;perimeter=ellipsePerimeter;outline=standard;symbol=general;" parent="94Gj55trSPbPdeBnX5Sf-7" vertex="1">
          <mxGeometry x="40" y="80" width="50" height="50" as="geometry" />
        </mxCell>
        <mxCell id="94Gj55trSPbPdeBnX5Sf-15" value="Request fund transfer" style="points=[[0.25,0,0],[0.5,0,0],[0.75,0,0],[1,0.25,0],[1,0.5,0],[1,0.75,0],[0.75,1,0],[0.5,1,0],[0.25,1,0],[0,0.75,0],[0,0.5,0],[0,0.25,0]];shape=mxgraph.bpmn.task;whiteSpace=wrap;rectStyle=rounded;size=10;html=1;container=1;expand=0;collapsible=0;taskMarker=abstract;" vertex="1" parent="94Gj55trSPbPdeBnX5Sf-7">
          <mxGeometry x="145" y="65" width="120" height="80" as="geometry" />
        </mxCell>
        <mxCell id="94Gj55trSPbPdeBnX5Sf-8" value="&lt;font style=&quot;font-size: 14px;&quot;&gt;E-banking platform&lt;/font&gt;" style="swimlane;startSize=20;horizontal=0;html=1;whiteSpace=wrap;" vertex="1" parent="1">
          <mxGeometry x="220" y="400" width="1360" height="340" as="geometry" />
        </mxCell>
        <mxCell id="94Gj55trSPbPdeBnX5Sf-1" value="" style="points=[[0.25,0.25,0],[0.5,0,0],[0.75,0.25,0],[1,0.5,0],[0.75,0.75,0],[0.5,1,0],[0.25,0.75,0],[0,0.5,0]];shape=mxgraph.bpmn.gateway2;html=1;verticalLabelPosition=bottom;labelBackgroundColor=#ffffff;verticalAlign=top;align=center;perimeter=rhombusPerimeter;outlineConnect=0;outline=none;symbol=none;gwType=exclusive;" vertex="1" parent="94Gj55trSPbPdeBnX5Sf-8">
          <mxGeometry x="180" y="45" width="50" height="50" as="geometry" />
        </mxCell>
        <mxCell id="94Gj55trSPbPdeBnX5Sf-6" value="Request user login credentials" style="points=[[0.25,0,0],[0.5,0,0],[0.75,0,0],[1,0.25,0],[1,0.5,0],[1,0.75,0],[0.75,1,0],[0.5,1,0],[0.25,1,0],[0,0.75,0],[0,0.5,0],[0,0.25,0]];shape=mxgraph.bpmn.task;whiteSpace=wrap;rectStyle=rounded;size=10;html=1;container=1;expand=0;collapsible=0;taskMarker=abstract;" vertex="1" parent="94Gj55trSPbPdeBnX5Sf-8">
          <mxGeometry x="290" y="230" width="120" height="80" as="geometry" />
        </mxCell>
        <mxCell id="94Gj55trSPbPdeBnX5Sf-11" value="" style="edgeStyle=orthogonalEdgeStyle;rounded=0;orthogonalLoop=1;jettySize=auto;html=1;" edge="1" parent="94Gj55trSPbPdeBnX5Sf-8" source="94Gj55trSPbPdeBnX5Sf-9" target="94Gj55trSPbPdeBnX5Sf-1">
          <mxGeometry relative="1" as="geometry" />
        </mxCell>
        <mxCell id="94Gj55trSPbPdeBnX5Sf-9" value="Check if user is logged-in" style="points=[[0.25,0,0],[0.5,0,0],[0.75,0,0],[1,0.25,0],[1,0.5,0],[1,0.75,0],[0.75,1,0],[0.5,1,0],[0.25,1,0],[0,0.75,0],[0,0.5,0],[0,0.25,0]];shape=mxgraph.bpmn.task;whiteSpace=wrap;rectStyle=rounded;size=10;html=1;container=1;expand=0;collapsible=0;taskMarker=abstract;" vertex="1" parent="94Gj55trSPbPdeBnX5Sf-8">
          <mxGeometry x="30" y="30" width="120" height="80" as="geometry" />
        </mxCell>
        <mxCell id="94Gj55trSPbPdeBnX5Sf-12" style="edgeStyle=orthogonalEdgeStyle;rounded=0;orthogonalLoop=1;jettySize=auto;html=1;exitX=0.5;exitY=1;exitDx=0;exitDy=0;exitPerimeter=0;entryX=0;entryY=0.5;entryDx=0;entryDy=0;entryPerimeter=0;" edge="1" parent="94Gj55trSPbPdeBnX5Sf-8" source="94Gj55trSPbPdeBnX5Sf-1" target="94Gj55trSPbPdeBnX5Sf-6">
          <mxGeometry relative="1" as="geometry" />
        </mxCell>
        <mxCell id="94Gj55trSPbPdeBnX5Sf-13" value="User isn&#39;t registered" style="text;html=1;align=center;verticalAlign=middle;resizable=0;points=[];autosize=1;strokeColor=none;fillColor=none;" vertex="1" parent="94Gj55trSPbPdeBnX5Sf-8">
          <mxGeometry x="170" y="270" width="130" height="30" as="geometry" />
        </mxCell>
        <mxCell id="94Gj55trSPbPdeBnX5Sf-17" value="Check if customer has sufficient amount in their account" style="points=[[0.25,0,0],[0.5,0,0],[0.75,0,0],[1,0.25,0],[1,0.5,0],[1,0.75,0],[0.75,1,0],[0.5,1,0],[0.25,1,0],[0,0.75,0],[0,0.5,0],[0,0.25,0]];shape=mxgraph.bpmn.task;whiteSpace=wrap;rectStyle=rounded;size=10;html=1;container=1;expand=0;collapsible=0;taskMarker=abstract;" vertex="1" parent="94Gj55trSPbPdeBnX5Sf-8">
          <mxGeometry x="330" y="30" width="120" height="80" as="geometry" />
        </mxCell>
        <mxCell id="94Gj55trSPbPdeBnX5Sf-28" value="" style="points=[[0.25,0.25,0],[0.5,0,0],[0.75,0.25,0],[1,0.5,0],[0.75,0.75,0],[0.5,1,0],[0.25,0.75,0],[0,0.5,0]];shape=mxgraph.bpmn.gateway2;html=1;verticalLabelPosition=bottom;labelBackgroundColor=#ffffff;verticalAlign=top;align=center;perimeter=rhombusPerimeter;outlineConnect=0;outline=none;symbol=none;gwType=exclusive;" vertex="1" parent="94Gj55trSPbPdeBnX5Sf-8">
          <mxGeometry x="490" y="45" width="50" height="50" as="geometry" />
        </mxCell>
        <mxCell id="94Gj55trSPbPdeBnX5Sf-29" style="edgeStyle=orthogonalEdgeStyle;rounded=0;orthogonalLoop=1;jettySize=auto;html=1;entryX=0;entryY=0.5;entryDx=0;entryDy=0;entryPerimeter=0;" edge="1" parent="94Gj55trSPbPdeBnX5Sf-8" source="94Gj55trSPbPdeBnX5Sf-17" target="94Gj55trSPbPdeBnX5Sf-28">
          <mxGeometry relative="1" as="geometry" />
        </mxCell>
        <mxCell id="94Gj55trSPbPdeBnX5Sf-32" value="" style="edgeStyle=elbowEdgeStyle;fontSize=12;html=1;endArrow=blockThin;endFill=1;rounded=0;exitX=0.5;exitY=0;exitDx=0;exitDy=0;exitPerimeter=0;entryX=0.002;entryY=0.164;entryDx=0;entryDy=0;entryPerimeter=0;" edge="1" parent="94Gj55trSPbPdeBnX5Sf-8" source="94Gj55trSPbPdeBnX5Sf-28" target="94Gj55trSPbPdeBnX5Sf-34">
          <mxGeometry width="160" relative="1" as="geometry">
            <mxPoint x="500" y="170" as="sourcePoint" />
            <mxPoint x="630.2399999999998" y="20.799999999999955" as="targetPoint" />
            <Array as="points">
              <mxPoint x="515" y="30" />
            </Array>
          </mxGeometry>
        </mxCell>
        <mxCell id="94Gj55trSPbPdeBnX5Sf-33" value="Insufficient amount" style="edgeLabel;html=1;align=center;verticalAlign=middle;resizable=0;points=[];" vertex="1" connectable="0" parent="94Gj55trSPbPdeBnX5Sf-32">
          <mxGeometry x="-0.0294" y="-1" relative="1" as="geometry">
            <mxPoint x="11" y="-2" as="offset" />
          </mxGeometry>
        </mxCell>
        <mxCell id="94Gj55trSPbPdeBnX5Sf-37" value="" style="edgeStyle=orthogonalEdgeStyle;rounded=0;orthogonalLoop=1;jettySize=auto;html=1;" edge="1" parent="94Gj55trSPbPdeBnX5Sf-8" source="94Gj55trSPbPdeBnX5Sf-34" target="94Gj55trSPbPdeBnX5Sf-36">
          <mxGeometry relative="1" as="geometry" />
        </mxCell>
        <mxCell id="94Gj55trSPbPdeBnX5Sf-34" value="&#xa;&lt;span style=&quot;color: rgb(0, 0, 0); font-family: Helvetica; font-size: 12px; font-style: normal; font-variant-ligatures: normal; font-variant-caps: normal; font-weight: 400; letter-spacing: normal; orphans: 2; text-align: center; text-indent: 0px; text-transform: none; widows: 2; word-spacing: 0px; -webkit-text-stroke-width: 0px; white-space: normal; background-color: rgb(251, 251, 251); text-decoration-thickness: initial; text-decoration-style: initial; text-decoration-color: initial; display: inline !important; float: none;&quot;&gt;Send notification to the client&lt;/span&gt;&#xa;&#xa;" style="points=[[0.25,0,0],[0.5,0,0],[0.75,0,0],[1,0.25,0],[1,0.5,0],[1,0.75,0],[0.75,1,0],[0.5,1,0],[0.25,1,0],[0,0.75,0],[0,0.5,0],[0,0.25,0]];shape=mxgraph.bpmn.task;whiteSpace=wrap;rectStyle=rounded;size=10;html=1;container=1;expand=0;collapsible=0;taskMarker=receive;" vertex="1" parent="94Gj55trSPbPdeBnX5Sf-8">
          <mxGeometry x="620" y="10" width="120" height="80" as="geometry" />
        </mxCell>
        <mxCell id="94Gj55trSPbPdeBnX5Sf-36" value="" style="points=[[0.145,0.145,0],[0.5,0,0],[0.855,0.145,0],[1,0.5,0],[0.855,0.855,0],[0.5,1,0],[0.145,0.855,0],[0,0.5,0]];shape=mxgraph.bpmn.event;html=1;verticalLabelPosition=bottom;labelBackgroundColor=#ffffff;verticalAlign=top;align=center;perimeter=ellipsePerimeter;outlineConnect=0;aspect=fixed;outline=end;symbol=terminate2;" vertex="1" parent="94Gj55trSPbPdeBnX5Sf-8">
          <mxGeometry x="760" y="25" width="50" height="50" as="geometry" />
        </mxCell>
        <mxCell id="94Gj55trSPbPdeBnX5Sf-38" value="Display security question" style="points=[[0.25,0,0],[0.5,0,0],[0.75,0,0],[1,0.25,0],[1,0.5,0],[1,0.75,0],[0.75,1,0],[0.5,1,0],[0.25,1,0],[0,0.75,0],[0,0.5,0],[0,0.25,0]];shape=mxgraph.bpmn.task;whiteSpace=wrap;rectStyle=rounded;size=10;html=1;container=1;expand=0;collapsible=0;taskMarker=abstract;" vertex="1" parent="94Gj55trSPbPdeBnX5Sf-8">
          <mxGeometry x="620" y="110" width="120" height="80" as="geometry" />
        </mxCell>
        <mxCell id="94Gj55trSPbPdeBnX5Sf-40" value="" style="edgeStyle=elbowEdgeStyle;fontSize=12;html=1;endArrow=blockThin;endFill=1;rounded=0;exitX=0.5;exitY=1;exitDx=0;exitDy=0;exitPerimeter=0;entryX=0;entryY=0.5;entryDx=0;entryDy=0;entryPerimeter=0;" edge="1" parent="94Gj55trSPbPdeBnX5Sf-8" source="94Gj55trSPbPdeBnX5Sf-28" target="94Gj55trSPbPdeBnX5Sf-38">
          <mxGeometry width="160" relative="1" as="geometry">
            <mxPoint x="620" y="170" as="sourcePoint" />
            <mxPoint x="780" y="170" as="targetPoint" />
            <Array as="points">
              <mxPoint x="515" y="130" />
            </Array>
          </mxGeometry>
        </mxCell>
        <mxCell id="94Gj55trSPbPdeBnX5Sf-14" style="edgeStyle=orthogonalEdgeStyle;rounded=0;orthogonalLoop=1;jettySize=auto;html=1;exitX=0.5;exitY=1;exitDx=0;exitDy=0;entryX=0.5;entryY=0;entryDx=0;entryDy=0;entryPerimeter=0;" edge="1" parent="1" source="7a84cebc1def654-1" target="94Gj55trSPbPdeBnX5Sf-9">
          <mxGeometry relative="1" as="geometry" />
        </mxCell>
        <mxCell id="94Gj55trSPbPdeBnX5Sf-16" style="edgeStyle=orthogonalEdgeStyle;rounded=0;orthogonalLoop=1;jettySize=auto;html=1;exitX=0.5;exitY=0;exitDx=0;exitDy=0;exitPerimeter=0;entryX=0.5;entryY=1;entryDx=0;entryDy=0;entryPerimeter=0;" edge="1" parent="1" source="94Gj55trSPbPdeBnX5Sf-1" target="94Gj55trSPbPdeBnX5Sf-15">
          <mxGeometry relative="1" as="geometry" />
        </mxCell>
        <mxCell id="94Gj55trSPbPdeBnX5Sf-18" value="&lt;span style=&quot;font-size: 12px; background-color: rgb(251, 251, 251);&quot;&gt;User is registered&lt;/span&gt;" style="edgeLabel;html=1;align=center;verticalAlign=middle;resizable=0;points=[];" vertex="1" connectable="0" parent="94Gj55trSPbPdeBnX5Sf-16">
          <mxGeometry x="-0.2419" y="-2" relative="1" as="geometry">
            <mxPoint x="-2" y="32" as="offset" />
          </mxGeometry>
        </mxCell>
        <mxCell id="94Gj55trSPbPdeBnX5Sf-19" style="edgeStyle=orthogonalEdgeStyle;rounded=0;orthogonalLoop=1;jettySize=auto;html=1;entryX=0;entryY=0.5;entryDx=0;entryDy=0;entryPerimeter=0;" edge="1" parent="1" source="94Gj55trSPbPdeBnX5Sf-15" target="94Gj55trSPbPdeBnX5Sf-17">
          <mxGeometry relative="1" as="geometry" />
        </mxCell>
        <mxCell id="94Gj55trSPbPdeBnX5Sf-20" value="" style="shape=datastore;html=1;labelPosition=center;verticalLabelPosition=bottom;align=center;verticalAlign=top;" vertex="1" parent="1">
          <mxGeometry x="50" y="340" width="70" height="80" as="geometry" />
        </mxCell>
        <mxCell id="94Gj55trSPbPdeBnX5Sf-21" value="Client DB" style="text;html=1;align=center;verticalAlign=middle;resizable=0;points=[];autosize=1;strokeColor=none;fillColor=none;" vertex="1" parent="1">
          <mxGeometry x="50" y="380" width="70" height="30" as="geometry" />
        </mxCell>
        <mxCell id="94Gj55trSPbPdeBnX5Sf-23" value="" style="edgeStyle=elbowEdgeStyle;fontSize=12;html=1;endFill=0;startFill=0;endSize=6;startSize=6;dashed=1;dashPattern=1 4;endArrow=openThin;startArrow=none;rounded=0;exitX=0.667;exitY=-0.023;exitDx=0;exitDy=0;exitPerimeter=0;entryX=1.012;entryY=0.407;entryDx=0;entryDy=0;entryPerimeter=0;" edge="1" parent="1" source="94Gj55trSPbPdeBnX5Sf-17" target="94Gj55trSPbPdeBnX5Sf-20">
          <mxGeometry width="160" relative="1" as="geometry">
            <mxPoint x="860" y="440" as="sourcePoint" />
            <mxPoint x="220" y="370" as="targetPoint" />
            <Array as="points">
              <mxPoint x="630" y="400" />
            </Array>
          </mxGeometry>
        </mxCell>
        <mxCell id="94Gj55trSPbPdeBnX5Sf-25" value="" style="endArrow=blockThin;html=1;labelPosition=left;verticalLabelPosition=middle;align=right;verticalAlign=middle;dashed=1;dashPattern=8 4;endFill=0;startArrow=oval;startFill=0;endSize=6;startSize=4;rounded=0;exitX=1.037;exitY=0.143;exitDx=0;exitDy=0;exitPerimeter=0;entryX=0.5;entryY=0;entryDx=0;entryDy=0;entryPerimeter=0;" edge="1" parent="1" source="94Gj55trSPbPdeBnX5Sf-21" target="94Gj55trSPbPdeBnX5Sf-17">
          <mxGeometry relative="1" as="geometry">
            <mxPoint x="860" y="440" as="sourcePoint" />
            <mxPoint x="1020" y="440" as="targetPoint" />
            <Array as="points">
              <mxPoint x="610" y="380" />
            </Array>
          </mxGeometry>
        </mxCell>
        <mxCell id="94Gj55trSPbPdeBnX5Sf-27" value="Client balance" style="edgeLabel;html=1;align=center;verticalAlign=middle;resizable=0;points=[];" vertex="1" connectable="0" parent="94Gj55trSPbPdeBnX5Sf-25">
          <mxGeometry x="-0.4107" relative="1" as="geometry">
            <mxPoint x="-84" as="offset" />
          </mxGeometry>
        </mxCell>
        <mxCell id="94Gj55trSPbPdeBnX5Sf-24" value="Request client&lt;div&gt;&amp;nbsp;balance&lt;/div&gt;" style="text;html=1;align=center;verticalAlign=middle;resizable=0;points=[];autosize=1;strokeColor=none;fillColor=none;" vertex="1" parent="1">
          <mxGeometry x="120" y="330" width="100" height="40" as="geometry" />
        </mxCell>
      </root>
    </mxGraphModel>
  </diagram>
</mxfile>
